<?xml version="1.0" encoding="UTF-8"?>
<svg width="400px" height="400px" viewBox="0 0 400 400" version="1.1" xmlns="http://www.w3.org/2000/svg" xmlns:xlink="http://www.w3.org/1999/xlink">
    <!-- Generator: Sketch 47.1 (45422) - http://www.bohemiancoding.com/sketch -->
    <title>Graph-paper</title>
    <desc>Created with Sketch.</desc>
    <defs></defs>
    <g id="Page-2" stroke="none" stroke-width="1" fill="none" fill-rule="evenodd" opacity="0.1">
        <g id="Desktop-HD">
            <g id="Graph-paper">
                <g id="layer1" stroke="#A9A9A9">
                    <g id="g8191" transform="translate(20.000000, 0.000000)">
                        <path d="M0,0 L0,400" id="path1872"></path>
                        <g id="use8185" transform="translate(20.000000, 0.000000)">
                            <path d="M0,0 L0,400" id="path1872"></path>
                        </g>
                        <g id="use8187" transform="translate(40.000000, 0.000000)">
                            <path d="M0,0 L0,400" id="path1872"></path>
                        </g>
                        <g id="use8189" transform="translate(60.000000, 0.000000)">
                            <path d="M0,0 L0,400" id="path1872"></path>
                        </g>
                    </g>
                    <g id="use8197" transform="translate(120.000000, 0.000000)">
                        <g id="g8191">
                            <path d="M0,0 L0,400" id="path1872"></path>
                            <g id="use8185" transform="translate(20.000000, 0.000000)">
                                <path d="M0,0 L0,400" id="path1872"></path>
                            </g>
                            <g id="use8187" transform="translate(40.000000, 0.000000)">
                                <path d="M0,0 L0,400" id="path1872"></path>
                            </g>
                            <g id="use8189" transform="translate(60.000000, 0.000000)">
                                <path d="M0,0 L0,400" id="path1872"></path>
                            </g>
                        </g>
                    </g>
                    <g id="use8199" transform="translate(220.000000, 0.000000)">
                        <g id="g8191">
                            <path d="M0,0 L0,400" id="path1872"></path>
                            <g id="use8185" transform="translate(20.000000, 0.000000)">
                                <path d="M0,0 L0,400" id="path1872"></path>
                            </g>
                            <g id="use8187" transform="translate(40.000000, 0.000000)">
                                <path d="M0,0 L0,400" id="path1872"></path>
                            </g>
                            <g id="use8189" transform="translate(60.000000, 0.000000)">
                                <path d="M0,0 L0,400" id="path1872"></path>
                            </g>
                        </g>
                    </g>
                    <g id="use8201" transform="translate(320.000000, 0.000000)">
                        <g id="g8191">
                            <path d="M0,0 L0,400" id="path1872"></path>
                            <g id="use8185" transform="translate(20.000000, 0.000000)">
                                <path d="M0,0 L0,400" id="path1872"></path>
                            </g>
                            <g id="use8187" transform="translate(40.000000, 0.000000)">
                                <path d="M0,0 L0,400" id="path1872"></path>
                            </g>
                            <g id="use8189" transform="translate(60.000000, 0.000000)">
                                <path d="M0,0 L0,400" id="path1872"></path>
                            </g>
                        </g>
                    </g>
                    <g id="use8203" transform="translate(200.000000, 50.500000) rotate(90.000000) translate(-200.000000, -50.500000) translate(169.500000, -149.500000)">
                        <g id="g8191">
                            <path d="M0,0 L0,400" id="path1872"></path>
                            <g id="use8185" transform="translate(20.000000, 0.000000)">
                                <path d="M0,0 L0,400" id="path1872"></path>
                            </g>
                            <g id="use8187" transform="translate(40.000000, 0.000000)">
                                <path d="M0,0 L0,400" id="path1872"></path>
                            </g>
                            <g id="use8189" transform="translate(60.000000, 0.000000)">
                                <path d="M0,0 L0,400" id="path1872"></path>
                            </g>
                        </g>
                    </g>
                    <g id="use8205" transform="translate(0.000000, 120.000000)">
                        <g id="use8203" transform="translate(200.000000, 30.500000) rotate(90.000000) translate(-200.000000, -30.500000) translate(169.500000, -169.500000)">
                            <g id="g8191">
                                <path d="M0,0 L0,400" id="path1872"></path>
                                <g id="use8185" transform="translate(20.000000, 0.000000)">
                                    <path d="M0,0 L0,400" id="path1872"></path>
                                </g>
                                <g id="use8187" transform="translate(40.000000, 0.000000)">
                                    <path d="M0,0 L0,400" id="path1872"></path>
                                </g>
                                <g id="use8189" transform="translate(60.000000, 0.000000)">
                                    <path d="M0,0 L0,400" id="path1872"></path>
                                </g>
                            </g>
                        </g>
                    </g>
                    <g id="use8207" transform="translate(0.000000, 220.000000)">
                        <g id="use8203" transform="translate(200.000000, 30.500000) rotate(90.000000) translate(-200.000000, -30.500000) translate(169.500000, -169.500000)">
                            <g id="g8191">
                                <path d="M0,0 L0,400" id="path1872"></path>
                                <g id="use8185" transform="translate(20.000000, 0.000000)">
                                    <path d="M0,0 L0,400" id="path1872"></path>
                                </g>
                                <g id="use8187" transform="translate(40.000000, 0.000000)">
                                    <path d="M0,0 L0,400" id="path1872"></path>
                                </g>
                                <g id="use8189" transform="translate(60.000000, 0.000000)">
                                    <path d="M0,0 L0,400" id="path1872"></path>
                                </g>
                            </g>
                        </g>
                    </g>
                    <g id="use8209" transform="translate(0.000000, 320.000000)">
                        <g id="use8203" transform="translate(200.000000, 30.500000) rotate(90.000000) translate(-200.000000, -30.500000) translate(169.500000, -169.500000)">
                            <g id="g8191">
                                <path d="M0,0 L0,400" id="path1872"></path>
                                <g id="use8185" transform="translate(20.000000, 0.000000)">
                                    <path d="M0,0 L0,400" id="path1872"></path>
                                </g>
                                <g id="use8187" transform="translate(40.000000, 0.000000)">
                                    <path d="M0,0 L0,400" id="path1872"></path>
                                </g>
                                <g id="use8189" transform="translate(60.000000, 0.000000)">
                                    <path d="M0,0 L0,400" id="path1872"></path>
                                </g>
                            </g>
                        </g>
                    </g>
                </g>
                <g id="layer2" stroke="#336666">
                    <g id="g8225" transform="translate(100.000000, 0.000000)">
                        <path d="M0,0 L0,400" id="path8215"></path>
                        <g id="use8217" transform="translate(100.000000, 0.000000)">
                            <path d="M0,0 L0,400" id="path8215"></path>
                        </g>
                        <g id="use8219" transform="translate(200.000000, 0.000000)">
                            <path d="M0,0 L0,400" id="path8215"></path>
                        </g>
                    </g>
                    <g id="use8232" transform="translate(200.000000, 200.500000) rotate(90.000000) translate(-200.000000, -200.500000) translate(99.500000, 0.500000)">
                        <g id="g8225">
                            <path d="M0,0 L0,400" id="path8215"></path>
                            <g id="use8217" transform="translate(100.000000, 0.000000)">
                                <path d="M0,0 L0,400" id="path8215"></path>
                            </g>
                            <g id="use8219" transform="translate(200.000000, 0.000000)">
                                <path d="M0,0 L0,400" id="path8215"></path>
                            </g>
                        </g>
                    </g>
                </g>
                <g id="layer3" stroke="#336666">
                    <rect id="rect10078" x="0.5" y="0.5" width="399" height="399"></rect>
                </g>
            </g>
        </g>
    </g>
</svg>