<?xml version="1.0" encoding="UTF-8"?>
<svg width="1083px" height="795px" viewBox="0 0 1083 795" version="1.1" xmlns="http://www.w3.org/2000/svg" xmlns:xlink="http://www.w3.org/1999/xlink">
    <!-- Generator: Sketch 45.2 (43514) - http://www.bohemiancoding.com/sketch -->
    <title>44</title>
    <desc>Created with Sketch.</desc>
    <defs></defs>
    <g id="Page-1" stroke="none" stroke-width="1" fill="none" fill-rule="evenodd">
        <g id="44">
            <path d="M330.091,447.17 C320.566,447.17 312.817,454.919 312.817,464.443 C312.817,466.754 313.265,468.996 314.152,471.106 C314.292,471.446 314.629,471.669 314.992,471.669 L401.326,471.669 C401.745,471.669 402.109,471.384 402.211,470.978 C402.621,469.344 402.828,467.698 402.828,466.089 C402.828,457.313 397.222,449.577 388.879,446.838 L388.373,446.671 L388.178,446.174 C384.185,435.942 374.133,429.065 363.165,429.065 C351.498,429.065 341.242,436.497 337.646,447.559 L337.281,448.682 L336.175,448.269 C334.222,447.539 332.174,447.17 330.091,447.17 Z M401.326,473.93 L314.992,473.93 C313.705,473.93 312.556,473.164 312.064,471.978 C311.063,469.592 310.554,467.055 310.554,464.443 C310.554,453.671 319.318,444.907 330.091,444.907 C332.059,444.907 333.998,445.199 335.871,445.776 C340.073,434.381 350.898,426.804 363.165,426.804 C374.881,426.804 385.633,434.037 390.089,444.86 C399.084,448.048 405.09,456.512 405.09,466.089 C405.09,467.885 404.86,469.713 404.405,471.526 C404.052,472.941 402.786,473.93 401.326,473.93 L401.326,473.93 Z" id="Fill-3" fill="#000000"></path>
            <path d="M35.949,232.559 C39.149,232.559 42.326,233.216 45.247,234.476 C49.755,219.037 63.778,208.428 80.042,208.428 C95.168,208.428 108.706,217.859 114.003,231.989 C125.462,235.534 133.39,246.207 133.39,258.258 C133.39,260.424 133.109,262.651 132.555,264.883 C132.368,265.638 131.691,266.165 130.916,266.165 L15.82,266.165 C15.143,266.165 14.524,265.757 14.264,265.131 C13.057,262.247 12.445,259.197 12.445,256.063 C12.445,243.105 22.99,232.559 35.949,232.559" id="Fill-4" fill="#FFFFFF"></path>
            <path d="M35.949,233.69 C23.612,233.69 13.576,243.726 13.576,256.063 C13.576,259.043 14.158,261.947 15.307,264.695 C15.393,264.898 15.599,265.035 15.82,265.035 L130.916,265.035 C131.172,265.035 131.396,264.86 131.457,264.61 C131.988,262.468 132.259,260.331 132.259,258.258 C132.259,246.813 124.614,236.456 113.668,233.07 L113.138,232.906 L112.944,232.386 C107.827,218.733 94.604,209.559 80.042,209.559 C64.287,209.559 50.74,219.699 46.333,234.792 L45.974,236.021 L44.799,235.514 C42.031,234.321 38.971,233.69 35.949,233.69 Z M130.916,267.297 L15.82,267.297 C14.679,267.297 13.659,266.617 13.22,265.566 C11.955,262.542 11.313,259.343 11.313,256.063 C11.313,242.479 22.365,231.428 35.949,231.428 C38.857,231.428 41.798,231.958 44.529,232.969 C49.571,217.562 63.689,207.297 80.042,207.297 C95.358,207.297 109.281,216.83 114.865,231.077 C126.465,234.92 134.521,246.016 134.521,258.258 C134.521,260.514 134.229,262.834 133.653,265.155 C133.34,266.417 132.213,267.297 130.916,267.297 L130.916,267.297 Z" id="Fill-5" fill="#000000"></path>
            <path d="M562.982,44.247 C559.059,44.247 555.242,45.003 551.604,46.497 C544.456,30.962 529.05,21.028 511.842,21.028 C495.454,21.028 480.744,29.963 473.134,44.445 C471.977,44.311 470.93,44.247 469.906,44.247 C460.424,44.247 451.596,48.67 445.907,56.176 C442.147,53.504 437.631,52.048 432.997,52.048 C420.685,52.048 410.671,62.064 410.671,74.372 C410.671,79.961 412.767,85.318 416.573,89.46 C416.923,89.843 417.419,90.06 417.933,90.06 L587.631,90.06 C588.294,90.06 588.906,89.698 589.235,89.119 C591.77,84.62 593.108,79.52 593.108,74.372 C593.108,57.762 579.593,44.247 562.982,44.247" id="Fill-6" fill="#FFFFFF"></path>
            <path d="M432.997,53.179 C421.311,53.179 411.803,62.687 411.803,74.372 C411.803,79.676 413.793,84.763 417.406,88.696 C417.542,88.845 417.734,88.929 417.933,88.929 L587.631,88.929 C587.885,88.929 588.125,88.788 588.252,88.56 C590.688,84.234 591.977,79.328 591.977,74.372 C591.977,58.384 578.97,45.377 562.982,45.377 C559.217,45.377 555.533,46.106 552.032,47.543 L551.029,47.956 L550.576,46.97 C543.643,31.897 528.438,22.159 511.842,22.159 C495.979,22.159 481.529,30.9 474.133,44.971 L473.773,45.658 L473.002,45.568 C471.893,45.44 470.878,45.377 469.906,45.377 C460.757,45.377 452.338,49.563 446.809,56.859 L446.145,57.734 L445.251,57.098 C441.645,54.535 437.407,53.179 432.997,53.179 Z M587.631,91.19 L417.933,91.19 C417.1,91.19 416.3,90.838 415.739,90.223 C411.743,85.875 409.539,80.245 409.539,74.372 C409.539,61.439 420.063,50.917 432.997,50.917 C437.519,50.917 441.876,52.205 445.668,54.648 C451.628,47.305 460.401,43.115 469.906,43.115 C470.735,43.115 471.588,43.157 472.496,43.241 C480.387,28.822 495.393,19.896 511.842,19.896 C528.963,19.896 544.674,29.738 552.174,45.061 C555.646,43.769 559.276,43.115 562.982,43.115 C580.219,43.115 594.24,57.137 594.24,74.372 C594.24,79.715 592.851,85.006 590.221,89.674 C589.689,90.61 588.697,91.19 587.631,91.19 L587.631,91.19 Z" id="Fill-7" fill="#000000"></path>
            <path d="M993.63,260.369 C992.77,260.369 991.88,260.437 990.94,260.565 C986.06,253.19 978.04,248.82 969.24,248.82 C967.57,248.82 965.87,249.021 963.98,249.447 C961.15,241.34 953.52,235.814 944.85,235.814 C935.61,235.814 927.71,241.968 925.33,250.727 C922.2,249.461 918.99,248.82 915.75,248.82 C901.36,248.82 889.66,260.525 889.66,274.915 C889.66,283.344 893.8,291.299 900.74,296.204 C901.02,296.407 901.37,296.517 901.72,296.517 L1005.63,296.517 C1006.04,296.517 1006.42,296.375 1006.73,296.11 C1011.32,292.21 1013.95,286.59 1013.95,280.694 C1013.95,269.488 1004.83,260.369 993.63,260.369" id="Fill-8" fill="#FFFFFF"></path>
            <path d="M915.75,249.951 C901.98,249.951 890.79,261.15 890.79,274.915 C890.79,282.977 894.75,290.589 901.39,295.28 C901.49,295.349 901.6,295.386 901.72,295.386 L1005.63,295.386 C1005.77,295.386 1005.9,295.338 1006,295.25 C1010.33,291.564 1012.82,286.26 1012.82,280.694 C1012.82,270.111 1004.21,261.5 993.63,261.5 C992.83,261.5 992,261.561 991.09,261.686 L990.38,261.783 L989.99,261.188 C985.34,254.151 977.59,249.951 969.24,249.951 C967.66,249.951 966.02,250.147 964.22,250.55 L963.24,250.771 L962.91,249.818 C960.23,242.118 952.97,236.946 944.85,236.946 C936.26,236.946 928.68,242.735 926.42,251.023 L926.08,252.253 L924.9,251.775 C921.92,250.564 918.84,249.951 915.75,249.951 Z M1005.63,297.648 L901.72,297.648 C901.13,297.648 900.56,297.468 900.08,297.127 C892.85,292.013 888.53,283.71 888.53,274.915 C888.53,259.902 900.74,247.688 915.75,247.688 C918.73,247.688 921.7,248.209 924.6,249.239 C927.5,240.609 935.66,234.683 944.85,234.683 C953.6,234.683 961.45,240.051 964.69,248.142 C966.29,247.836 967.78,247.688 969.24,247.688 C978.12,247.688 986.38,252.038 991.48,259.358 C992.23,259.278 992.94,259.238 993.63,259.238 C1005.46,259.238 1015.08,268.863 1015.08,280.694 C1015.08,286.924 1012.31,292.857 1007.47,296.972 C1006.96,297.408 1006.3,297.648 1005.63,297.648 L1005.63,297.648 Z" id="Fill-9" fill="#000000"></path>
            <path d="M594.336,152.091 C580.998,152.091 568.944,160.268 563.943,172.573 C563.512,172.541 563.077,172.525 562.644,172.525 C551.187,172.525 541.866,181.845 541.866,193.303 C541.866,198.719 543.951,203.854 547.735,207.759 C548.051,208.086 548.482,208.267 548.936,208.267 L616.728,208.267 C617.182,208.267 617.615,208.086 617.929,207.759 C623.895,201.59 627.182,193.481 627.182,184.931 C627.182,166.822 612.447,152.091 594.336,152.091" id="Fill-10" fill="#FFFFFF"></path>
            <path d="M562.644,173.656 C551.811,173.656 542.998,182.469 542.998,193.303 C542.998,198.424 544.967,203.278 548.546,206.972 C548.649,207.077 548.786,207.136 548.936,207.136 L616.728,207.136 C616.876,207.136 617.017,207.077 617.113,206.976 C622.878,201.014 626.05,193.187 626.05,184.931 C626.05,167.446 611.824,153.223 594.336,153.223 C581.591,153.223 569.798,161.17 564.991,172.999 L564.68,173.762 L563.857,173.7 C563.456,173.67 563.05,173.656 562.644,173.656 Z M616.728,209.398 L548.936,209.398 C548.169,209.398 547.455,209.096 546.923,208.547 C542.931,204.429 540.734,199.014 540.734,193.303 C540.734,181.222 550.564,171.394 562.644,171.394 C562.83,171.394 563.02,171.396 563.209,171.402 C568.543,159.142 580.951,150.96 594.336,150.96 C613.071,150.96 628.313,166.2 628.313,184.931 C628.313,193.776 624.914,202.163 618.741,208.545 C618.222,209.086 617.487,209.398 616.728,209.398 L616.728,209.398 Z" id="Fill-11" fill="#000000"></path>
            <path d="M743.861,746.459 L615.737,746.459 C602.819,746.459 592.312,756.965 592.312,769.881 C592.312,782.801 602.819,793.311 615.737,793.311 L743.861,793.311 C756.777,793.311 767.291,782.801 767.291,769.881 C767.291,756.965 756.777,746.459 743.861,746.459" id="Fill-12" fill="#A2D7FF"></path>
            <path d="M615.737,747.59 C603.445,747.59 593.443,757.588 593.443,769.881 C593.443,782.177 603.445,792.179 615.737,792.179 L743.861,792.179 C756.157,792.179 766.159,782.177 766.159,769.881 C766.159,757.588 756.157,747.59 743.861,747.59 L615.737,747.59 Z M743.861,794.441 L615.737,794.441 C602.195,794.441 591.182,783.423 591.182,769.881 C591.182,756.341 602.195,745.327 615.737,745.327 L743.861,745.327 C757.404,745.327 768.423,756.341 768.423,769.881 C768.423,783.423 757.404,794.441 743.861,794.441 L743.861,794.441 Z" id="Fill-13" fill="#000000"></path>
            <path d="M525.485,746.459 C512.567,746.459 502.06,756.969 502.06,769.883 C502.06,782.801 512.567,793.311 525.485,793.311 C538.401,793.311 548.909,782.801 548.909,769.883 C548.909,756.969 538.401,746.459 525.485,746.459" id="Fill-14" fill="#A2D7FF"></path>
            <path d="M525.485,747.59 C513.192,747.59 503.19,757.592 503.19,769.883 C503.19,782.177 513.192,792.179 525.485,792.179 C537.778,792.179 547.78,782.177 547.78,769.883 C547.78,757.592 537.778,747.59 525.485,747.59 Z M525.485,794.441 C511.944,794.441 500.928,783.425 500.928,769.883 C500.928,756.341 511.944,745.327 525.485,745.327 C539.024,745.327 550.041,756.341 550.041,769.883 C550.041,783.425 539.024,794.441 525.485,794.441 L525.485,794.441 Z" id="Fill-15" fill="#000000"></path>
            <path d="M1053.34,503.044 L1047.38,499.522 C1036.25,492.955 1018.06,492.955 1006.93,499.522 L1000.97,503.044 C989.85,509.614 971.65,509.614 960.53,503.044 L954.56,499.522 C943.44,492.955 925.24,492.955 914.12,499.522 L908.16,503.044 C897.04,509.614 878.83,509.614 867.71,503.044 L861.75,499.522 C850.62,492.955 832.424,492.955 821.301,499.522 L815.339,503.044 C804.217,509.614 786.015,509.614 774.895,503.044 L768.931,499.522 C757.807,492.955 739.607,492.955 728.484,499.522 L722.522,503.044 C711.4,509.614 693.198,509.614 682.08,503.044 L676.114,499.522 C664.992,492.955 646.792,492.955 635.67,499.522 L629.708,503.044 C618.586,509.614 600.385,509.614 589.264,503.044 L583.3,499.522 C572.177,492.955 553.977,492.955 542.853,499.522 L536.891,503.044 C525.769,509.614 507.566,509.614 496.446,503.044 L490.483,499.522 C479.359,492.955 461.158,492.955 450.036,499.522 L444.075,503.044 C432.952,509.614 414.752,509.614 403.63,503.044 L397.667,499.522 C386.543,492.955 368.344,492.955 357.223,499.522 L351.258,503.044 C340.139,509.614 321.938,509.614 310.815,503.044 L304.853,499.522 C293.728,492.955 275.528,492.955 264.405,499.522 L258.443,503.044 C247.321,509.614 229.119,509.614 217.997,503.044 L212.035,499.522 C200.911,492.955 182.712,492.955 171.588,499.522 L165.626,503.044 C154.506,509.614 136.303,509.614 125.182,503.044 L119.218,499.522 C108.094,492.955 89.894,492.955 78.774,499.522 L72.81,503.044 C61.689,509.614 43.488,509.614 32.367,503.044 L26.404,499.522 C19.837,495.646 10.808,494.076 2.221,494.778 C2.044,495.988 1.922,497.218 1.922,498.476 L1.922,516.472 C1.922,530.627 13.441,542.146 27.6,542.146 L168.891,542.146 C183.262,542.146 194.951,553.832 194.951,568.201 C194.951,581.118 205.459,591.63 218.375,591.63 L331.202,591.63 C345.57,591.63 357.26,603.321 357.26,617.684 C357.26,632.058 345.57,643.744 331.202,643.744 L204.412,643.744 C191.496,643.744 180.987,654.254 180.987,667.171 C180.987,680.089 191.496,690.6 204.412,690.6 L743.199,690.6 C756.115,690.6 766.629,680.089 766.629,667.171 C766.629,654.254 756.115,643.744 743.199,643.744 L616.074,643.744 C603.008,643.744 591.908,633.974 590.25,621.016 L590.229,620.847 L590.25,620.683 C590.396,619.53 590.467,618.58 590.467,617.684 C590.467,603.321 602.155,591.63 616.521,591.63 L687.707,591.63 C700.628,591.63 711.139,581.118 711.139,568.201 C711.139,553.832 722.826,542.146 737.192,542.146 L1055.83,542.146 C1069.99,542.146 1081.51,530.627 1081.51,516.472 L1081.51,507.309 C1071.82,508.947 1060.93,507.528 1053.34,503.044" id="Fill-16" fill="#A2D7FF"></path>
            <path d="M204.412,644.875 C192.118,644.875 182.118,654.877 182.118,667.171 C182.118,679.466 192.118,689.468 204.412,689.468 L743.199,689.468 C755.493,689.468 765.497,679.466 765.497,667.171 C765.497,654.877 755.493,644.875 743.199,644.875 L616.074,644.875 C602.442,644.875 590.857,634.682 589.129,621.158 L589.106,620.702 C589.271,619.428 589.335,618.521 589.335,617.684 C589.335,602.694 601.531,590.498 616.521,590.498 L687.707,590.498 C700.002,590.498 710.008,580.495 710.008,568.201 C710.008,553.21 722.201,541.015 737.192,541.015 L1055.83,541.015 C1069.37,541.015 1080.38,530.005 1080.38,516.472 L1080.38,508.627 C1078.14,508.939 1075.85,509.099 1073.55,509.099 C1065.69,509.099 1058.31,507.294 1052.77,504.02 L1046.8,500.498 C1041.59,497.422 1034.62,495.729 1027.16,495.729 C1019.69,495.729 1012.72,497.422 1007.51,500.498 L1001.54,504.02 C996,507.297 988.61,509.104 980.75,509.104 C972.89,509.104 965.5,507.297 959.95,504.02 L953.99,500.498 C948.78,497.422 941.8,495.729 934.34,495.729 C926.88,495.729 919.9,497.422 914.69,500.498 L908.73,504.02 C903.18,507.297 895.79,509.104 887.93,509.104 C880.07,509.104 872.69,507.297 867.14,504.02 L861.17,500.498 C855.96,497.422 848.99,495.729 841.522,495.729 C834.063,495.729 827.085,497.422 821.876,500.498 L815.914,504.02 C810.362,507.297 802.976,509.104 795.115,509.104 C787.254,509.104 779.869,507.297 774.319,504.02 L768.355,500.498 C763.146,497.422 756.169,495.729 748.708,495.729 C741.246,495.729 734.269,497.422 729.062,500.498 L723.098,504.02 C717.548,507.297 710.161,509.104 702.3,509.104 C694.439,509.104 687.053,507.297 681.505,504.02 L675.539,500.498 C670.33,497.422 663.354,495.729 655.892,495.729 C648.429,495.729 641.452,497.422 636.244,500.498 L630.283,504.02 C624.733,507.297 617.347,509.104 609.485,509.104 C601.625,509.104 594.238,507.297 588.688,504.02 L582.725,500.498 C577.516,497.422 570.539,495.729 563.077,495.729 C555.615,495.729 548.637,497.422 543.428,500.498 L537.466,504.02 C531.915,507.297 524.528,509.104 516.669,509.104 C508.808,509.104 501.421,507.297 495.87,504.02 L489.908,500.498 C484.699,497.422 477.721,495.729 470.259,495.729 C462.798,495.729 455.82,497.422 450.611,500.498 L444.649,504.02 C439.1,507.297 431.713,509.104 423.853,509.104 C415.992,509.104 408.605,507.297 403.055,504.02 L397.091,500.498 C391.884,497.422 384.905,495.729 377.444,495.729 C369.981,495.729 363.005,497.422 357.798,500.498 L351.834,504.02 C346.285,507.297 338.898,509.104 331.037,509.104 C323.176,509.104 315.79,507.297 310.24,504.02 L304.277,500.498 C299.07,497.422 292.09,495.729 284.628,495.729 C277.166,495.729 270.188,497.422 264.98,500.498 L259.018,504.02 C253.468,507.297 246.082,509.104 238.219,509.104 C230.358,509.104 222.971,507.297 217.421,504.02 L211.46,500.498 C206.251,497.422 199.274,495.729 191.812,495.729 C184.349,495.729 177.372,497.422 172.164,500.498 L166.202,504.02 C160.651,507.297 153.266,509.104 145.404,509.104 C137.543,509.104 130.157,507.297 124.606,504.02 L118.644,500.498 C113.436,497.422 106.457,495.729 98.996,495.729 C91.534,495.729 84.555,497.422 79.35,500.498 L73.385,504.02 C67.836,507.297 60.451,509.104 52.589,509.104 C44.728,509.104 37.342,507.297 31.791,504.02 L25.828,500.498 C19.947,497.023 11.651,495.313 3.221,495.84 C3.107,496.798 3.054,497.652 3.054,498.476 L3.054,516.472 C3.054,530.005 14.065,541.015 27.6,541.015 L168.891,541.015 C183.884,541.015 196.082,553.21 196.082,568.201 C196.082,580.495 206.082,590.498 218.375,590.498 L331.202,590.498 C346.194,590.498 358.39,602.694 358.39,617.684 C358.39,632.678 346.194,644.875 331.202,644.875 L204.412,644.875 Z M743.199,691.729 L204.412,691.729 C190.872,691.729 179.855,680.713 179.855,667.171 C179.855,653.631 190.872,642.614 204.412,642.614 L331.202,642.614 C344.947,642.614 356.129,631.431 356.129,617.684 C356.129,603.941 344.947,592.76 331.202,592.76 L218.375,592.76 C204.835,592.76 193.819,581.743 193.819,568.201 C193.819,554.457 182.637,543.276 168.891,543.276 L27.6,543.276 C12.818,543.276 0.792,531.252 0.792,516.472 L0.792,498.476 C0.792,497.291 0.89,496.063 1.102,494.614 L1.231,493.725 L2.128,493.65 C3.479,493.539 4.854,493.484 6.217,493.484 C14.073,493.484 21.445,495.282 26.98,498.55 L32.942,502.071 C38.149,505.146 45.127,506.84 52.589,506.84 C60.052,506.84 67.028,505.146 72.235,502.071 L78.198,498.55 C83.749,495.272 91.135,493.466 98.996,493.466 C106.855,493.466 114.243,495.272 119.794,498.55 L125.758,502.071 C130.965,505.146 137.942,506.84 145.404,506.84 C152.866,506.84 159.845,505.146 165.052,502.071 L171.013,498.55 C176.565,495.272 183.951,493.466 191.812,493.466 C199.672,493.466 207.058,495.272 212.61,498.55 L218.573,502.071 C223.779,505.146 230.757,506.84 238.219,506.84 C245.683,506.84 252.659,505.146 257.867,502.071 L263.83,498.55 C269.382,495.272 276.767,493.466 284.628,493.466 C292.489,493.466 299.876,495.272 305.429,498.55 L311.39,502.071 C316.597,505.146 323.575,506.84 331.037,506.84 C338.5,506.84 345.477,505.146 350.683,502.071 L356.647,498.55 C362.198,495.272 369.583,493.466 377.444,493.466 C385.304,493.466 392.689,495.272 398.243,498.55 L404.207,502.071 C409.414,505.146 416.391,506.84 423.853,506.84 C431.314,506.84 438.292,505.146 443.5,502.071 L449.461,498.55 C455.013,495.272 462.399,493.466 470.259,493.466 C478.12,493.466 485.506,495.272 491.058,498.55 L497.021,502.071 C502.228,505.146 509.205,506.84 516.669,506.84 C524.129,506.84 531.107,505.146 536.316,502.071 L542.278,498.55 C547.83,495.272 555.216,493.466 563.077,493.466 C570.938,493.466 578.325,495.272 583.877,498.55 L589.838,502.071 C595.046,505.146 602.022,506.84 609.485,506.84 C616.947,506.84 623.926,505.146 629.133,502.071 L635.095,498.55 C640.645,495.272 648.031,493.466 655.892,493.466 C663.753,493.466 671.14,495.272 676.689,498.55 L682.655,502.071 C687.86,505.146 694.837,506.84 702.3,506.84 C709.762,506.84 716.74,505.146 721.947,502.071 L727.909,498.55 C733.461,495.272 740.848,493.466 748.708,493.466 C756.567,493.466 763.954,495.272 769.506,498.55 L775.472,502.071 C780.677,505.146 787.654,506.84 795.115,506.84 C802.579,506.84 809.555,505.146 814.764,502.071 L820.724,498.55 C826.277,495.272 833.664,493.466 841.522,493.466 C849.38,493.466 856.77,495.272 862.32,498.55 L868.29,502.071 C873.49,505.146 880.47,506.84 887.93,506.84 C895.4,506.84 902.37,505.146 907.58,502.071 L913.54,498.55 C919.09,495.272 926.48,493.466 934.34,493.466 C942.2,493.466 949.59,495.272 955.14,498.55 L961.1,502.071 C966.31,505.146 973.29,506.84 980.75,506.84 C988.21,506.84 995.19,505.146 1000.4,502.071 L1006.36,498.55 C1011.91,495.272 1019.29,493.466 1027.16,493.466 C1035.02,493.466 1042.4,495.272 1047.95,498.55 L1053.92,502.071 C1059.12,505.143 1066.09,506.836 1073.55,506.836 C1076.18,506.836 1078.8,506.62 1081.32,506.192 L1082.64,505.97 L1082.64,516.472 C1082.64,531.252 1070.62,543.276 1055.83,543.276 L737.192,543.276 C723.45,543.276 712.268,554.457 712.268,568.201 C712.268,581.743 701.25,592.76 687.707,592.76 L616.521,592.76 C602.777,592.76 591.597,603.941 591.597,617.684 C591.597,618.616 591.525,619.615 591.374,620.824 C592.958,633.268 603.578,642.614 616.074,642.614 L743.199,642.614 C756.742,642.614 767.759,653.631 767.759,667.171 C767.759,680.713 756.742,691.729 743.199,691.729 L743.199,691.729 Z" id="Fill-17" fill="#000000"></path>
            <path d="M1055.83,472.801 L27.6,472.801 C14.701,472.801 4.023,482.371 2.221,494.778 C10.808,494.076 19.837,495.646 26.404,499.522 L32.367,503.044 C43.488,509.614 61.689,509.614 72.81,503.044 L78.774,499.522 C89.894,492.955 108.094,492.955 119.218,499.522 L125.182,503.044 C136.303,509.614 154.506,509.614 165.626,503.044 L171.588,499.522 C182.712,492.955 200.911,492.955 212.035,499.522 L217.997,503.044 C229.119,509.614 247.321,509.614 258.443,503.044 L264.405,499.522 C275.528,492.955 293.728,492.955 304.853,499.522 L310.815,503.044 C321.938,509.614 340.139,509.614 351.258,503.044 L357.223,499.522 C368.344,492.955 386.543,492.955 397.667,499.522 L403.63,503.044 C414.752,509.614 432.952,509.614 444.075,503.044 L450.036,499.522 C461.158,492.955 479.359,492.955 490.483,499.522 L496.446,503.044 C507.566,509.614 525.769,509.614 536.891,503.044 L542.853,499.522 C553.977,492.955 572.177,492.955 583.3,499.522 L589.264,503.044 C600.385,509.614 618.586,509.614 629.708,503.044 L635.67,499.522 C646.792,492.955 664.992,492.955 676.114,499.522 L682.08,503.044 C693.198,509.614 711.4,509.614 722.522,503.044 L728.484,499.522 C739.607,492.955 757.807,492.955 768.931,499.522 L774.895,503.044 C786.015,509.614 804.217,509.614 815.339,503.044 L821.301,499.522 C832.424,492.955 850.62,492.955 861.75,499.522 L867.71,503.044 C878.83,509.614 897.04,509.614 908.16,503.044 L914.12,499.522 C925.24,492.955 943.44,492.955 954.56,499.522 L960.53,503.044 C971.65,509.614 989.85,509.614 1000.97,503.044 L1006.93,499.522 C1018.06,492.955 1036.25,492.955 1047.38,499.522 L1053.34,503.044 C1060.93,507.528 1071.82,508.947 1081.51,507.309 L1081.51,498.476 C1081.51,484.319 1069.99,472.801 1055.83,472.801" id="Fill-18" fill="#FFFFFF"></path>
            <path d="M934.34,493.466 C942.2,493.466 949.59,495.272 955.14,498.55 L961.1,502.071 C966.31,505.146 973.29,506.84 980.75,506.84 C988.21,506.84 995.19,505.146 1000.4,502.071 L1006.36,498.55 C1011.91,495.272 1019.29,493.466 1027.16,493.466 C1035.02,493.466 1042.4,495.272 1047.95,498.55 L1053.92,502.071 C1059.12,505.143 1066.09,506.835 1073.55,506.836 C1075.86,506.836 1078.15,506.67 1080.38,506.341 L1080.38,498.476 C1080.38,484.942 1069.37,473.93 1055.83,473.93 L27.6,473.93 C15.981,473.93 5.897,482.271 3.583,493.553 C12.323,493.1 20.828,494.918 26.98,498.55 L32.942,502.071 C38.149,505.146 45.127,506.84 52.589,506.84 C60.052,506.84 67.028,505.146 72.235,502.071 L78.198,498.55 C83.749,495.272 91.135,493.466 98.996,493.466 C106.855,493.466 114.243,495.272 119.794,498.55 L125.758,502.071 C130.965,505.146 137.942,506.84 145.404,506.84 C152.866,506.84 159.845,505.146 165.052,502.071 L171.013,498.55 C176.565,495.272 183.951,493.466 191.812,493.466 C199.672,493.466 207.058,495.272 212.61,498.55 L218.573,502.071 C223.779,505.146 230.757,506.84 238.219,506.84 C245.683,506.84 252.659,505.146 257.867,502.071 L263.83,498.55 C269.382,495.272 276.767,493.466 284.628,493.466 C292.489,493.466 299.876,495.272 305.429,498.55 L311.39,502.071 C316.597,505.146 323.575,506.84 331.037,506.84 C338.5,506.84 345.477,505.146 350.683,502.071 L356.647,498.55 C362.198,495.272 369.583,493.466 377.444,493.466 C385.304,493.466 392.689,495.272 398.243,498.55 L404.207,502.071 C409.414,505.146 416.391,506.84 423.853,506.84 C431.314,506.84 438.292,505.146 443.5,502.071 L449.461,498.55 C455.013,495.272 462.399,493.466 470.259,493.466 C478.12,493.466 485.506,495.272 491.058,498.55 L497.021,502.071 C502.228,505.146 509.205,506.84 516.669,506.84 C524.129,506.84 531.107,505.146 536.316,502.071 L542.278,498.55 C547.83,495.272 555.216,493.466 563.077,493.466 C570.938,493.466 578.325,495.272 583.877,498.55 L589.838,502.071 C595.046,505.146 602.022,506.84 609.485,506.84 C616.947,506.84 623.926,505.146 629.133,502.071 L635.095,498.55 C640.645,495.272 648.031,493.466 655.892,493.466 C663.753,493.466 671.14,495.272 676.689,498.55 L682.655,502.071 C687.86,505.146 694.837,506.84 702.3,506.84 C709.762,506.84 716.74,505.146 721.947,502.071 L727.909,498.55 C733.461,495.272 740.848,493.466 748.707,493.466 C756.567,493.466 763.954,495.272 769.506,498.55 L775.472,502.071 C780.677,505.146 787.654,506.84 795.115,506.84 C802.579,506.84 809.555,505.146 814.764,502.071 L820.724,498.55 C826.277,495.272 833.664,493.466 841.522,493.466 C849.38,493.466 856.77,495.272 862.32,498.55 L868.29,502.071 C873.49,505.146 880.47,506.84 887.93,506.84 C895.4,506.84 902.37,505.146 907.58,502.071 L913.54,498.55 C919.09,495.272 926.48,493.466 934.34,493.466 Z M980.75,509.104 C972.89,509.104 965.5,507.297 959.95,504.02 L953.99,500.498 C948.78,497.422 941.8,495.729 934.34,495.729 C926.88,495.729 919.9,497.422 914.69,500.498 L908.73,504.02 C903.18,507.297 895.79,509.104 887.93,509.104 C880.07,509.104 872.69,507.297 867.14,504.02 L861.17,500.498 C855.96,497.422 848.99,495.729 841.522,495.729 C834.063,495.729 827.085,497.422 821.876,500.498 L815.914,504.02 C810.362,507.297 802.976,509.104 795.115,509.104 C787.254,509.104 779.869,507.297 774.319,504.02 L768.355,500.498 C763.146,497.422 756.169,495.729 748.707,495.729 C741.246,495.729 734.269,497.422 729.062,500.498 L723.098,504.02 C717.548,507.297 710.161,509.104 702.3,509.104 C694.439,509.104 687.053,507.297 681.505,504.02 L675.539,500.498 C670.33,497.422 663.354,495.729 655.892,495.729 C648.429,495.729 641.452,497.422 636.244,500.498 L630.283,504.02 C624.733,507.297 617.347,509.104 609.485,509.104 C601.625,509.104 594.238,507.297 588.688,504.02 L582.725,500.498 C577.516,497.422 570.539,495.729 563.077,495.729 C555.615,495.729 548.637,497.422 543.428,500.498 L537.466,504.02 C531.915,507.297 524.528,509.104 516.669,509.104 C508.808,509.104 501.421,507.297 495.87,504.02 L489.908,500.498 C484.699,497.422 477.721,495.729 470.259,495.729 C462.798,495.729 455.82,497.422 450.611,500.498 L444.649,504.02 C439.1,507.297 431.713,509.104 423.853,509.104 C415.992,509.104 408.605,507.297 403.055,504.02 L397.091,500.498 C391.884,497.422 384.905,495.729 377.444,495.729 C369.981,495.729 363.005,497.422 357.798,500.498 L351.834,504.02 C346.285,507.297 338.898,509.104 331.037,509.104 C323.176,509.104 315.79,507.297 310.24,504.02 L304.277,500.498 C299.07,497.422 292.09,495.729 284.628,495.729 C277.166,495.729 270.188,497.422 264.98,500.498 L259.018,504.02 C253.468,507.297 246.082,509.104 238.219,509.104 C230.358,509.104 222.971,507.297 217.421,504.02 L211.46,500.498 C206.251,497.422 199.274,495.729 191.812,495.729 C184.349,495.729 177.372,497.422 172.164,500.498 L166.202,504.02 C160.651,507.297 153.266,509.104 145.404,509.104 C137.543,509.104 130.157,507.297 124.606,504.02 L118.644,500.498 C113.436,497.422 106.457,495.729 98.996,495.729 C91.534,495.729 84.555,497.422 79.35,500.498 L73.385,504.02 C67.836,507.297 60.451,509.104 52.589,509.104 C44.728,509.104 37.342,507.297 31.791,504.02 L25.828,500.498 C20.641,497.433 13.674,495.747 6.217,495.747 C4.916,495.747 3.602,495.8 2.313,495.906 L0.898,496.021 L1.102,494.615 C3.002,481.534 14.395,471.669 27.6,471.669 L1055.83,471.669 C1070.62,471.669 1082.64,483.693 1082.64,498.476 L1082.64,508.263 L1081.7,508.424 C1079.05,508.87 1076.31,509.099 1073.55,509.099 C1065.69,509.098 1058.31,507.294 1052.77,504.02 L1046.8,500.498 C1041.59,497.422 1034.62,495.729 1027.16,495.729 C1019.69,495.729 1012.72,497.422 1007.51,500.498 L1001.54,504.02 C996,507.297 988.61,509.104 980.75,509.104 L980.75,509.104 Z" id="Fill-19" fill="#000000"></path>
            <path d="M390.261,538.961 L335.689,538.961 C330.203,538.961 325.752,543.409 325.752,548.893 L297.909,548.893 C292.422,548.893 287.973,553.344 287.973,558.832 C287.973,564.314 292.422,568.766 297.909,568.766 L377.646,568.766 C383.133,568.766 387.581,564.314 387.581,558.832 L390.261,558.832 C395.745,558.832 400.198,554.381 400.198,548.893 C400.198,543.409 395.745,538.961 390.261,538.961" id="Fill-20" fill="#7CA3C2"></path>
            <path d="M297.909,550.023 C293.054,550.023 289.104,553.975 289.104,558.832 C289.104,563.686 293.054,567.635 297.909,567.635 L377.646,567.635 C382.5,567.635 386.45,563.686 386.45,558.832 L386.45,557.701 L390.261,557.701 C395.118,557.701 399.067,553.75 399.067,548.893 C399.067,544.039 395.118,540.091 390.261,540.091 L335.689,540.091 C330.833,540.091 326.882,544.039 326.882,548.893 L326.882,550.023 L297.909,550.023 Z M377.646,569.896 L297.909,569.896 C291.806,569.896 286.842,564.933 286.842,558.832 C286.842,552.728 291.806,547.761 297.909,547.761 L324.679,547.761 C325.247,542.19 329.968,537.829 335.689,537.829 L390.261,537.829 C396.364,537.829 401.329,542.791 401.329,548.893 C401.329,554.996 396.364,559.962 390.261,559.962 L388.655,559.962 C388.087,565.535 383.366,569.896 377.646,569.896 L377.646,569.896 Z" id="Fill-21" fill="#000000"></path>
            <path d="M585.729,538.961 L485.947,538.961 C479.077,538.961 473.514,544.527 473.514,551.396 C473.514,558.257 479.077,563.828 485.947,563.828 L499.652,563.828 C499.652,570.691 505.218,576.264 512.087,576.264 L541.957,576.264 C548.824,576.264 554.391,570.691 554.391,563.828 L585.729,563.828 C592.596,563.828 598.162,558.257 598.162,551.396 C598.162,544.527 592.596,538.961 585.729,538.961" id="Fill-22" fill="#7CA3C2"></path>
            <path d="M485.947,540.091 C479.715,540.091 474.646,545.162 474.646,551.396 C474.646,557.627 479.715,562.696 485.947,562.696 L500.783,562.696 L500.783,563.828 C500.783,570.061 505.854,575.133 512.087,575.133 L541.957,575.133 C548.189,575.133 553.259,570.061 553.259,563.828 L553.259,562.696 L585.729,562.696 C591.962,562.696 597.031,557.627 597.031,551.396 C597.031,545.162 591.962,540.091 585.729,540.091 L485.947,540.091 Z M541.957,577.393 L512.087,577.393 C504.988,577.393 499.144,571.912 498.566,564.959 L485.947,564.959 C478.468,564.959 472.383,558.874 472.383,551.396 C472.383,543.916 478.468,537.829 485.947,537.829 L585.729,537.829 C593.208,537.829 599.294,543.916 599.294,551.396 C599.294,558.874 593.208,564.959 585.729,564.959 L555.476,564.959 C554.898,571.912 549.056,577.393 541.957,577.393 L541.957,577.393 Z" id="Fill-23" fill="#000000"></path>
            <path d="M515.023,610.574 L486.73,610.574 C486.73,605.273 482.432,600.974 477.129,600.974 L400.087,600.974 C394.784,600.974 390.488,605.273 390.488,610.574 C390.488,615.872 394.784,620.175 400.087,620.175 L428.38,620.175 C428.38,625.477 432.68,629.774 437.979,629.774 L515.023,629.774 C520.326,629.774 524.623,625.477 524.623,620.175 C524.623,614.874 520.326,610.574 515.023,610.574" id="Fill-24" fill="#7CA3C2"></path>
            <path d="M400.087,602.104 C395.417,602.104 391.619,605.904 391.619,610.574 C391.619,615.245 395.417,619.044 400.087,619.044 L429.512,619.044 L429.512,620.175 C429.512,624.847 433.311,628.645 437.979,628.645 L515.023,628.645 C519.694,628.645 523.493,624.847 523.493,620.175 C523.493,615.504 519.694,611.704 515.023,611.704 L485.599,611.704 L485.599,610.574 C485.599,605.904 481.8,602.104 477.129,602.104 L400.087,602.104 Z M515.023,630.906 L437.979,630.906 C432.445,630.906 427.875,626.693 427.31,621.307 L400.087,621.307 C394.169,621.307 389.356,616.491 389.356,610.574 C389.356,604.657 394.169,599.844 400.087,599.844 L477.129,599.844 C482.664,599.844 487.234,604.056 487.8,609.442 L515.023,609.442 C520.941,609.442 525.754,614.257 525.754,620.175 C525.754,626.092 520.941,630.906 515.023,630.906 L515.023,630.906 Z" id="Fill-25" fill="#000000"></path>
            <polyline id="Fill-26" fill="#FFFFFF" points="848.69 420.173 900.25 204.166 951.8 420.173 848.69 420.173"></polyline>
            <path d="M850.13,419.043 L950.37,419.043 L900.25,209.038 L850.13,419.043 Z M953.24,421.305 L847.26,421.305 L900.25,199.294 L953.24,421.305 L953.24,421.305 Z" id="Fill-27" fill="#000000"></path>
            <path d="M900.25,332.549 L900.25,473.298" id="Fill-28" fill="#FFFFFF"></path>
            <polygon id="Fill-29" fill="#000000" points="899.12 473.298 901.38 473.298 901.38 332.549 899.12 332.549"></polygon>
            <polyline id="Fill-30" fill="#FFFFFF" points="799.373 419.764 836.326 264.938 873.28 419.764 799.373 419.764"></polyline>
            <path d="M800.806,418.633 L871.85,418.633 L836.326,269.81 L800.806,418.633 Z M874.71,420.894 L797.939,420.894 L836.326,260.065 L874.71,420.894 L874.71,420.894 Z" id="Fill-31" fill="#000000"></path>
            <path d="M836.326,356.957 L836.326,472.801" id="Fill-32" fill="#FFFFFF"></path>
            <polygon id="Fill-33" fill="#000000" points="835.194 472.801 837.457 472.801 837.457 356.957 835.194 356.957"></polygon>
            <polyline id="Fill-34" fill="#FFFFFF" points="157.493 435.221 194.445 280.396 231.4 435.221 157.493 435.221"></polyline>
            <path d="M158.926,434.09 L229.967,434.09 L194.445,285.268 L158.926,434.09 Z M232.832,436.352 L156.061,436.352 L194.445,275.522 L232.832,436.352 L232.832,436.352 Z" id="Fill-35" fill="#000000"></path>
            <path d="M194.445,372.414 L194.445,473.298" id="Fill-36" fill="#FFFFFF"></path>
            <polygon id="Fill-37" fill="#000000" points="193.315 473.298 195.576 473.298 195.576 372.414 193.315 372.414"></polygon>
            <polyline id="Fill-38" fill="#FFFFFF" points="976.48 429.053 955.49 392.71 976.48 356.366 1018.44 356.366 1039.42 392.71 1018.44 429.053 976.48 429.053"></polyline>
            <path d="M977.13,427.922 L1017.79,427.922 L1038.12,392.71 L1017.79,357.497 L977.13,357.497 L956.8,392.71 L977.13,427.922 Z M1019.09,430.185 L975.82,430.185 L954.19,392.71 L975.82,355.235 L1019.09,355.235 L1040.73,392.71 L1019.09,430.185 L1019.09,430.185 Z" id="Fill-39" fill="#000000"></path>
            <polygon id="Fill-40" fill="#000000" points="996.33 472.801 998.59 472.801 998.59 398.348 996.33 398.348"></polygon>
            <polyline id="Fill-41" fill="#FFFFFF" points="536.869 360.123 577.389 336.728 617.903 360.123 617.903 406.906 577.389 430.298 536.869 406.906 536.869 360.123"></polyline>
            <path d="M538,406.253 L577.389,428.992 L616.771,406.253 L616.771,360.775 L577.389,338.034 L538,360.775 L538,406.253 Z M577.389,431.604 L535.739,407.558 L535.739,359.47 L577.389,335.422 L619.033,359.47 L619.033,407.558 L577.389,431.604 L577.389,431.604 Z" id="Fill-42" fill="#000000"></path>
            <polygon id="Fill-43" fill="#000000" points="576.257 472.801 578.519 472.801 578.519 389.799 576.257 389.799"></polygon>
            <polyline id="Fill-44" fill="#FFFFFF" points="58.091 360.123 98.609 336.728 139.123 360.123 139.123 406.906 98.609 430.298 58.091 406.906 58.091 360.123"></polyline>
            <path d="M59.223,406.253 L98.609,428.992 L137.993,406.253 L137.993,360.775 L98.609,338.034 L59.223,360.775 L59.223,406.253 Z M98.609,431.604 L56.96,407.558 L56.96,359.47 L98.609,335.422 L140.255,359.47 L140.255,407.558 L98.609,431.604 L98.609,431.604 Z" id="Fill-45" fill="#000000"></path>
            <polygon id="Fill-46" fill="#000000" points="97.479 472.801 99.74 472.801 99.74 389.799 97.479 389.799"></polygon>
            <polyline id="Fill-47" fill="#FFFFFF" points="481.457 415.09 453.775 367.147 481.457 319.205 536.813 319.205 564.494 367.147 536.813 415.09 481.457 415.09"></polyline>
            <path d="M482.109,413.959 L536.16,413.959 L563.189,367.147 L536.16,320.335 L482.109,320.335 L455.082,367.147 L482.109,413.959 Z M537.466,416.222 L480.804,416.222 L452.47,367.147 L480.804,318.074 L537.466,318.074 L565.8,367.147 L537.466,416.222 L537.466,416.222 Z" id="Fill-48" fill="#000000"></path>
            <polygon id="Fill-49" fill="#000000" points="508.004 472.801 510.266 472.801 510.266 374.586 508.004 374.586"></polygon>
            <path d="M284.409,154.523 L283.869,154.65 C283.227,154.787 282.774,154.876 282.321,154.937 L281.989,154.979 C281.572,155.038 281.155,155.073 280.734,155.089 L280.44,155.115 C280.271,155.115 280.107,155.104 279.939,155.093 L279.378,155.064 C279.122,155.044 278.861,155.016 278.603,154.982 C278.392,154.955 278.182,154.927 277.971,154.89 C277.759,154.854 276.798,154.645 276.798,154.645 L276.451,155.127 L268.818,462.37 L292.06,462.37 L284.409,154.523" id="Fill-50" fill="#FFFFFF"></path>
            <path d="M419.532,239.703 L419.777,239.573 C420.563,239.159 421.398,238.85 422.257,238.656 L422.55,238.589 L420.068,234.057 L418.174,226.744 L389.102,156.67 L388.488,155.626 L387.369,158.42 L411.047,229.918 L418.584,236.349 L419.532,239.703" id="Fill-51" fill="#FFFFFF"></path>
            <path d="M277.248,152.452 C278.172,152.699 279.126,152.834 280.084,152.849 C280.159,152.851 280.231,152.851 280.3,152.851 C280.845,152.851 281.266,152.82 281.682,152.764 L282.034,152.714 C282.62,152.639 283.198,152.525 283.76,152.363 C284.366,152.197 284.707,152.101 285.029,151.977 C285.827,151.655 286.586,151.234 287.391,150.676 C288.503,149.903 289.461,148.994 290.239,147.972 C291.911,145.774 292.795,143.199 292.795,140.524 C292.795,137.175 291.459,134.031 289.038,131.669 C287.615,130.288 285.907,129.3 283.961,128.735 C283.321,128.548 282.653,128.411 281.975,128.322 L281.505,128.263 C281.094,128.206 280.773,128.163 280.44,128.163 C274.802,128.163 269.895,132.002 268.505,137.5 C268.216,138.645 268.079,139.605 268.079,140.524 C268.079,142.174 268.402,143.775 269.038,145.285 C270.298,148.296 272.764,150.731 275.806,151.967 C276.28,152.159 276.761,152.32 277.248,152.452" id="Fill-52" fill="#A2D7FF"></path>
            <path d="M295.145,464.61 L265.729,464.61 C264.804,464.61 263.967,465.102 263.437,465.959 C263.11,466.488 262.965,466.919 262.965,467.366 L262.965,468.896 C262.965,470.423 264.207,471.663 265.729,471.663 L295.145,471.663 C296.666,471.663 297.903,470.423 297.903,468.896 L297.903,467.366 C297.903,466.917 297.753,466.471 297.436,465.963 C296.904,465.104 296.068,464.61 295.145,464.61" id="Fill-53" fill="#FFFFFF"></path>
            <path d="M266.234,143.822 C266.143,143.437 266.074,143.048 266.015,142.656 L265.944,142.185 C265.883,141.637 265.842,141.083 265.842,140.524 C265.842,140.154 265.859,139.773 265.897,139.391 L265.961,138.749 L258.123,140.736 L246.724,140.631 L135.209,155.376 L132.437,156.141 L137.072,159.609 L248.834,153.027 L260.749,144.778 L266.425,144.64 L266.284,144.088 L266.234,143.822" id="Fill-54" fill="#FFFFFF"></path>
            <path d="M285.416,126.898 L286.097,127.153 C286.308,127.228 286.519,127.301 286.717,127.395 C287.029,127.541 287.322,127.718 287.615,127.896 L288.249,128.257 C288.404,128.34 288.561,128.422 288.706,128.521 L289.221,128.871 L291.522,120.931 L297.19,111.308 L340.195,7.333 L340.917,4.54 L335.597,6.82 L285.406,106.898 L286.599,121.345 L283.847,126.381 L284.399,126.532 C284.815,126.658 285.115,126.778 285.416,126.898" id="Fill-55" fill="#FFFFFF"></path>
            <path d="M290.583,150.958 C290.527,151.011 290.203,151.275 290.203,151.275 C289.819,151.627 289.429,151.969 289.013,152.275 C288.866,152.383 288.714,152.481 288.561,152.581 L288.364,152.709 C287.988,152.957 287.607,153.192 287.209,153.402 L286.96,153.534 L286.638,154.014 L286.652,154.491 L291.869,159.918 L297.366,169.643 L365.904,258.879 L367.962,260.897 L368.65,255.145 L307.074,161.639 L293.97,155.449 L290.99,150.561 L290.583,150.958" id="Fill-56" fill="#FFFFFF"></path>
            <path d="M413.266,468.326 C413.082,468.623 412.999,468.86 412.999,469.098 L412.999,470.134 C412.999,470.974 413.681,471.659 414.523,471.659 L434.368,471.659 C435.206,471.659 435.889,470.974 435.889,470.134 L435.889,469.098 C435.889,468.855 435.809,468.619 435.626,468.331 C435.521,468.157 435.114,467.576 434.368,467.576 L414.523,467.576 C413.807,467.576 413.405,468.101 413.266,468.326" id="Fill-57" fill="#FFFFFF"></path>
            <path d="M521.072,261.558 L447.315,246.315 L437.98,249.63 L434.609,248.772 L434.597,249.048 C434.594,249.138 434.543,249.557 434.543,249.557 C434.526,249.76 434.509,249.963 434.48,250.164 C434.446,250.387 434.397,250.607 434.347,250.828 C434.284,251.115 434.245,251.289 434.196,251.459 L434.114,251.741 L434.36,251.95 L439.226,252.055 L446.506,254.075 L521.638,263.929 L522.931,263.919 L521.072,261.558" id="Fill-58" fill="#FFFFFF"></path>
            <path d="M430.103,242.932 C428.601,241.43 426.589,240.602 424.44,240.602 L424.437,240.602 C422.635,240.626 420.997,241.198 419.567,242.303 L419.29,242.517 C419.082,242.674 418.931,242.789 418.794,242.927 C416.221,245.499 415.727,249.495 417.594,252.646 C417.999,253.325 418.376,253.826 418.791,254.243 C419.53,254.978 420.391,255.553 421.349,255.953 C421.922,256.171 422.304,256.284 422.693,256.371 L423.069,256.447 C423.478,256.518 423.891,256.561 424.311,256.568 C424.311,256.568 424.311,256.568 424.312,256.568 C424.541,256.568 424.75,256.547 424.965,256.527 L425.384,256.484 C425.868,256.417 426.206,256.352 426.505,256.273 C426.922,256.162 427.233,256.078 427.53,255.953 C428.543,255.523 429.389,254.955 430.102,254.24 C430.285,254.055 430.439,253.852 430.592,253.651 C430.993,253.129 431.202,252.815 431.383,252.488 C431.594,252.119 431.708,251.917 431.796,251.713 C432.216,250.723 432.424,249.68 432.416,248.596 C432.416,248.237 432.388,247.875 432.339,247.513 C432.099,245.739 431.326,244.155 430.103,242.932" id="Fill-59" fill="#A2D7FF"></path>
            <path d="M417.247,255.792 C417.141,255.688 417.042,255.585 416.944,255.472 L416.743,255.237 L414.056,259.652 L408.668,264.949 L362.519,325.163 L361.923,326.209 L364.904,325.785 L414.978,269.523 L416.78,259.784 L419.181,257.314 L418.954,257.166 C418.284,256.719 417.729,256.273 417.247,255.792" id="Fill-60" fill="#FFFFFF"></path>
            <path d="M426.535,258.542 C426.428,258.565 426.318,258.575 426.209,258.585 L425.956,258.614 C425.173,258.727 424.817,258.771 424.448,258.771 L424.017,258.726 C423.471,258.704 422.927,258.663 422.396,258.555 L422.132,258.5 L422.086,258.767 L416.954,465.387 L431.938,465.387 L426.801,258.485 L426.535,258.542" id="Fill-61" fill="#FFFFFF"></path>
            <path d="M446.506,254.075 L439.226,252.055 L434.36,251.95 L434.114,251.741 L434.196,251.459 C434.245,251.289 434.284,251.115 434.347,250.828 C434.397,250.607 434.446,250.387 434.48,250.164 C434.509,249.963 434.526,249.76 434.543,249.557 C434.543,249.557 434.594,249.138 434.597,249.048 L434.609,248.772 L437.98,249.63 L447.315,246.315 L521.072,261.558 L522.931,263.919 L521.638,263.929 L446.506,254.075 Z M431.796,251.713 C431.708,251.917 431.594,252.119 431.383,252.488 C431.202,252.815 430.993,253.129 430.592,253.651 C430.439,253.852 430.285,254.055 430.102,254.24 C429.389,254.955 428.543,255.523 427.53,255.953 C427.233,256.078 426.922,256.162 426.505,256.273 C426.206,256.352 425.868,256.417 425.384,256.484 L424.965,256.527 C424.75,256.547 424.541,256.568 424.312,256.568 C424.311,256.568 424.311,256.568 424.311,256.568 C423.891,256.561 423.478,256.518 423.069,256.447 L422.693,256.371 C422.304,256.284 421.922,256.171 421.349,255.953 C420.391,255.553 419.53,254.978 418.791,254.243 C418.376,253.826 417.999,253.325 417.594,252.646 C415.727,249.495 416.221,245.499 418.794,242.927 C418.931,242.789 419.082,242.674 419.29,242.517 L419.567,242.303 C420.997,241.198 422.635,240.626 424.437,240.602 L424.44,240.602 C426.589,240.602 428.601,241.43 430.103,242.932 C431.326,244.155 432.099,245.739 432.339,247.513 C432.388,247.875 432.416,248.237 432.416,248.596 C432.424,249.68 432.216,250.723 431.796,251.713 Z M431.938,465.387 L416.954,465.387 L422.086,258.767 L422.132,258.5 L422.396,258.555 C422.927,258.663 423.471,258.704 424.017,258.726 L424.448,258.771 C424.817,258.771 425.173,258.727 425.956,258.614 L426.209,258.585 C426.318,258.575 426.428,258.565 426.535,258.542 L426.801,258.485 L431.938,465.387 Z M434.368,467.576 C435.114,467.576 435.521,468.157 435.626,468.331 C435.809,468.619 435.889,468.855 435.889,469.098 L435.889,470.134 C435.889,470.974 435.206,471.659 434.368,471.659 L414.523,471.659 C413.681,471.659 412.999,470.974 412.999,470.134 L412.999,469.098 C412.999,468.86 413.082,468.623 413.266,468.326 C413.405,468.101 413.807,467.576 414.523,467.576 L434.368,467.576 Z M416.78,259.784 L414.978,269.523 L364.904,325.785 L361.923,326.209 L362.519,325.163 L408.668,264.949 L414.056,259.652 L416.743,255.237 L416.944,255.472 C417.042,255.585 417.141,255.688 417.247,255.792 C417.729,256.273 418.284,256.719 418.954,257.166 L419.181,257.314 L416.78,259.784 Z M411.047,229.918 L387.369,158.42 L388.488,155.626 L389.102,156.67 L418.174,226.744 L420.068,234.057 L422.55,238.589 L422.257,238.656 C421.398,238.85 420.563,239.159 419.777,239.573 L419.532,239.703 L418.584,236.349 L411.047,229.918 Z M522.326,259.526 L447.152,244.018 L437.857,247.309 L434.346,246.466 L434.316,246.328 C433.887,244.408 432.965,242.699 431.65,241.385 C429.944,239.679 427.686,238.678 424.937,238.375 L422.164,233.394 L420.243,226.05 L391.057,155.694 L388.107,150.68 L384.984,158.351 L409.135,231.212 L416.635,237.618 L417.644,241.048 L417.245,241.383 C414.185,244.439 413.431,249.131 415.361,253.273 L412.435,258.17 L407.032,263.501 L360.701,323.955 L357.821,329.013 L366.032,327.884 L416.857,270.7 L417.052,270.535 L418.853,260.835 L419.877,259.763 L414.771,465.166 L414.743,465.387 L414.523,465.387 C413.261,465.387 412.096,466.055 411.404,467.172 C411.003,467.822 410.809,468.452 410.809,469.098 L410.809,470.134 C410.809,472.18 412.475,473.846 414.523,473.846 L434.368,473.846 C436.414,473.846 438.078,472.18 438.078,470.134 L438.078,469.098 C438.078,468.442 437.884,467.813 437.486,467.171 C436.792,466.055 435.626,465.387 434.351,465.387 L434.13,465.387 L428.97,257.656 L429.095,257.592 C430.137,257.057 430.971,256.466 431.648,255.787 C431.917,255.521 432.14,255.231 432.489,254.771 C432.59,254.639 432.681,254.492 432.772,254.347 L433.035,253.936 L433.231,254.123 L438.75,254.203 L446.074,256.215 L521.502,266.119 L527.415,266.074 L522.326,259.526 L522.326,259.526 Z" id="Fill-62" fill="#000000"></path>
            <path d="M297.903,468.896 C297.903,470.423 296.666,471.663 295.145,471.663 L265.729,471.663 C264.207,471.663 262.965,470.423 262.965,468.896 L262.965,467.366 C262.965,466.919 263.11,466.488 263.437,465.959 C263.967,465.102 264.804,464.61 265.729,464.61 L295.145,464.61 C296.068,464.61 296.904,465.104 297.436,465.963 C297.753,466.471 297.903,466.917 297.903,467.366 L297.903,468.896 Z M276.451,155.127 L276.798,154.645 C276.798,154.645 277.759,154.854 277.971,154.89 C278.182,154.927 278.392,154.955 278.603,154.982 C278.861,155.016 279.122,155.044 279.378,155.064 L279.939,155.093 C280.107,155.104 280.271,155.115 280.44,155.115 L280.734,155.089 C281.155,155.073 281.572,155.038 281.989,154.979 L282.321,154.937 C282.774,154.876 283.227,154.787 283.869,154.65 L284.409,154.523 L292.06,462.37 L268.818,462.37 L276.451,155.127 Z M269.038,145.285 C268.402,143.775 268.079,142.174 268.079,140.524 C268.079,139.605 268.216,138.645 268.505,137.5 C269.895,132.002 274.802,128.163 280.44,128.163 C280.773,128.163 281.094,128.206 281.505,128.263 L281.975,128.322 C282.653,128.411 283.321,128.548 283.961,128.735 C285.907,129.3 287.615,130.288 289.038,131.669 C291.459,134.031 292.795,137.175 292.795,140.524 C292.795,143.199 291.911,145.774 290.239,147.972 C289.461,148.994 288.503,149.903 287.391,150.676 C286.586,151.234 285.827,151.655 285.029,151.977 C284.707,152.101 284.366,152.197 283.76,152.363 C283.198,152.525 282.62,152.639 282.034,152.714 L281.682,152.764 C281.266,152.82 280.845,152.851 280.3,152.851 C280.231,152.851 280.159,152.851 280.084,152.849 C279.126,152.834 278.172,152.699 277.248,152.452 C276.761,152.32 276.28,152.159 275.806,151.967 C272.764,150.731 270.298,148.296 269.038,145.285 Z M286.599,121.345 L285.406,106.898 L335.597,6.82 L340.917,4.54 L340.195,7.333 L297.19,111.308 L291.522,120.931 L289.221,128.871 L288.706,128.521 C288.561,128.422 288.404,128.34 288.249,128.257 L287.615,127.896 C287.322,127.718 287.029,127.541 286.717,127.395 C286.519,127.301 286.308,127.228 286.097,127.153 L285.416,126.898 C285.115,126.778 284.815,126.658 284.399,126.532 L283.847,126.381 L286.599,121.345 Z M293.97,155.449 L307.074,161.639 L368.65,255.145 L367.962,260.897 L365.904,258.879 L297.366,169.643 L291.869,159.918 L286.652,154.491 L286.638,154.014 L286.96,153.534 L287.209,153.402 C287.607,153.192 287.988,152.957 288.364,152.709 L288.561,152.581 C288.714,152.481 288.866,152.383 289.013,152.275 C289.429,151.969 289.819,151.627 290.203,151.275 C290.203,151.275 290.527,151.011 290.583,150.958 L290.99,150.561 L293.97,155.449 Z M260.749,144.778 L248.834,153.027 L137.072,159.609 L132.437,156.141 L135.209,155.376 L246.724,140.631 L258.123,140.736 L265.961,138.749 L265.897,139.391 C265.859,139.773 265.842,140.154 265.842,140.524 C265.842,141.083 265.883,141.637 265.944,142.185 L266.015,142.656 C266.074,143.048 266.143,143.437 266.234,143.822 L266.284,144.088 L266.425,144.64 L260.749,144.778 Z M295.145,462.37 L294.297,462.37 L286.732,157.78 L289.955,161.11 L295.505,170.878 L364.232,260.358 L369.647,265.687 L370.969,254.598 L308.596,159.88 L295.532,153.71 L292.443,148.66 L292.602,148.42 C294.193,145.993 295.033,143.263 295.033,140.524 C295.033,136.923 293.685,133.452 291.236,130.751 L291.067,130.566 L293.51,121.99 L299.19,112.302 L342.313,8.043 L344.222,0.69 L333.962,5.087 L283.127,106.455 L284.31,120.859 L281.49,126.022 L280.96,125.967 C280.79,125.946 280.617,125.925 280.44,125.925 C274.148,125.925 268.605,129.994 266.646,136.048 L266.568,136.286 L257.85,138.481 L246.618,138.401 L134.768,153.185 L127.443,155.2 L136.384,161.891 L249.591,155.225 L261.472,146.998 L267.306,146.857 L267.436,147.111 C268.852,149.895 271.181,152.195 273.995,153.589 L274.253,153.717 L266.577,462.37 L265.729,462.37 C264.036,462.37 262.467,463.272 261.533,464.78 C260.992,465.657 260.729,466.503 260.729,467.366 L260.729,468.896 C260.729,471.657 262.973,473.901 265.729,473.901 L295.145,473.901 C297.899,473.901 300.14,471.657 300.14,468.896 L300.14,467.366 C300.14,466.49 299.877,465.645 299.337,464.778 C298.404,463.271 296.836,462.37 295.145,462.37 L295.145,462.37 Z" id="Fill-63" fill="#000000"></path>
            <path d="M767.288,75.833 C730.545,75.833 700.65,105.727 700.65,142.471 C700.65,179.216 730.545,209.111 767.288,209.111 C804.034,209.111 833.929,179.216 833.929,142.471 C833.929,105.727 804.034,75.833 767.288,75.833" id="Fill-64" fill="#FFF492"></path>
            <path d="M767.288,209.111 C730.545,209.111 700.65,179.216 700.65,142.471 C700.65,105.727 730.545,75.833 767.288,75.833 C804.034,75.833 833.929,105.727 833.929,142.471 C833.929,179.216 804.034,209.111 767.288,209.111 Z M767.288,73.65 C729.339,73.65 698.466,104.523 698.466,142.471 C698.466,180.42 729.339,211.293 767.288,211.293 C805.239,211.293 836.112,180.42 836.112,142.471 C836.112,104.523 805.239,73.65 767.288,73.65 L767.288,73.65 Z" id="Fill-65" fill="#000000"></path>
            <path d="M767.288,55.373 C767.892,55.373 768.382,54.883 768.382,54.281 L768.382,31.703 C768.382,31.102 767.892,30.613 767.288,30.613 C766.687,30.613 766.196,31.102 766.196,31.703 L766.196,54.281 C766.196,54.883 766.687,55.373 767.288,55.373" id="Fill-66" fill="#000000"></path>
            <path d="M777.677,57.297 C778.279,57.297 778.769,56.808 778.769,56.205 L778.769,37.625 C778.769,37.024 778.279,36.535 777.677,36.535 C777.076,36.535 776.586,37.024 776.586,37.625 L776.586,56.205 C776.586,56.808 777.076,57.297 777.677,57.297" id="Fill-67" fill="#000000"></path>
            <path d="M757.221,57.297 C757.823,57.297 758.313,56.808 758.313,56.205 L758.313,45.343 C758.313,44.741 757.823,44.252 757.221,44.252 C756.618,44.252 756.13,44.741 756.13,45.343 L756.13,56.205 C756.13,56.808 756.618,57.297 757.221,57.297" id="Fill-68" fill="#000000"></path>
            <path d="M714.57,71.766 C714.772,72.046 715.101,72.214 715.453,72.214 C715.682,72.214 715.903,72.142 716.092,72.005 C716.329,71.833 716.484,71.579 716.529,71.291 C716.576,71.003 716.507,70.716 716.332,70.48 L703.061,52.213 C702.853,51.928 702.532,51.764 702.18,51.764 C701.946,51.764 701.723,51.836 701.536,51.973 C701.301,52.145 701.145,52.397 701.101,52.687 C701.054,52.975 701.124,53.263 701.296,53.499 L714.57,71.766" id="Fill-69" fill="#000000"></path>
            <path d="M724.104,67.213 C724.311,67.497 724.633,67.661 724.99,67.661 C725.222,67.661 725.443,67.59 725.63,67.453 C726.115,67.101 726.223,66.416 725.87,65.928 L714.949,50.894 C714.745,50.613 714.414,50.445 714.065,50.445 C713.834,50.445 713.611,50.518 713.426,50.653 C712.94,51.009 712.831,51.694 713.183,52.178 L724.104,67.213" id="Fill-70" fill="#000000"></path>
            <path d="M707.549,79.24 C707.76,79.527 708.082,79.692 708.438,79.692 C708.668,79.692 708.891,79.621 709.074,79.487 C709.563,79.13 709.671,78.445 709.32,77.959 L702.938,69.173 C702.729,68.885 702.406,68.72 702.05,68.72 C701.819,68.72 701.6,68.792 701.411,68.929 C700.924,69.283 700.816,69.967 701.169,70.455 L707.549,79.24" id="Fill-71" fill="#000000"></path>
            <path d="M661.604,109.283 L683.073,116.254 C683.187,116.291 683.302,116.308 683.415,116.308 C683.89,116.308 684.307,116.004 684.453,115.552 C684.545,115.275 684.521,114.979 684.389,114.721 C684.258,114.461 684.031,114.27 683.751,114.178 L662.279,107.206 C662.168,107.17 662.056,107.152 661.941,107.152 C661.469,107.152 661.052,107.456 660.902,107.91 C660.813,108.185 660.837,108.48 660.969,108.74 C661.101,109 661.327,109.192 661.604,109.283" id="Fill-72" fill="#000000"></path>
            <path d="M688.795,104.893 L671.126,99.15 C671.016,99.115 670.9,99.096 670.787,99.096 C670.312,99.096 669.895,99.401 669.746,99.852 C669.562,100.422 669.876,101.04 670.449,101.227 L688.108,106.968 C688.229,107.005 688.344,107.024 688.457,107.024 C688.93,107.024 689.348,106.721 689.496,106.268 C689.681,105.697 689.365,105.08 688.795,104.893" id="Fill-73" fill="#000000"></path>
            <path d="M682.469,124.353 L672.148,120.995 C672.035,120.96 671.919,120.941 671.806,120.941 C671.328,120.941 670.913,121.244 670.769,121.694 C670.678,121.973 670.7,122.27 670.833,122.53 C670.965,122.789 671.189,122.982 671.466,123.072 L681.792,126.43 C681.9,126.465 682.012,126.482 682.132,126.482 C682.604,126.482 683.023,126.179 683.172,125.733 C683.357,125.158 683.044,124.54 682.469,124.353" id="Fill-74" fill="#000000"></path>
            <path d="M684.389,170.212 C684.521,169.953 684.545,169.657 684.453,169.382 C684.305,168.929 683.888,168.624 683.413,168.624 C683.3,168.624 683.187,168.643 683.079,168.678 L661.604,175.661 C661.031,175.849 660.717,176.467 660.902,177.039 C661.05,177.489 661.467,177.792 661.942,177.792 C662.058,177.792 662.173,177.774 662.279,177.739 L683.752,170.756 C684.031,170.665 684.258,170.472 684.389,170.212" id="Fill-75" fill="#000000"></path>
            <path d="M682.027,158.153 C681.914,158.153 681.801,158.172 681.694,158.205 L664.027,163.949 C663.751,164.04 663.526,164.232 663.394,164.492 C663.262,164.753 663.237,165.048 663.33,165.327 C663.475,165.777 663.893,166.08 664.367,166.08 C664.479,166.08 664.595,166.062 664.705,166.026 L682.369,160.283 C682.941,160.096 683.257,159.478 683.072,158.909 C682.924,158.457 682.504,158.153 682.027,158.153" id="Fill-76" fill="#000000"></path>
            <path d="M688.36,177.613 C688.245,177.613 688.132,177.631 688.019,177.669 L677.694,181.022 C677.417,181.113 677.19,181.306 677.057,181.566 C676.925,181.825 676.902,182.12 676.993,182.398 C677.14,182.851 677.555,183.155 678.03,183.155 C678.144,183.155 678.254,183.136 678.366,183.1 L688.692,179.745 C688.971,179.653 689.197,179.46 689.328,179.2 C689.463,178.941 689.484,178.646 689.396,178.369 C689.247,177.917 688.831,177.613 688.36,177.613" id="Fill-77" fill="#000000"></path>
            <path d="M715.451,212.719 C715.1,212.719 714.776,212.884 714.566,213.171 L701.296,231.447 C700.944,231.935 701.054,232.619 701.538,232.973 C701.727,233.109 701.949,233.182 702.18,233.182 C702.534,233.182 702.856,233.018 703.066,232.732 L716.336,214.457 C716.688,213.969 716.579,213.283 716.094,212.929 C715.903,212.792 715.682,212.719 715.451,212.719" id="Fill-78" fill="#000000"></path>
            <path d="M709.256,205.982 C709.209,205.694 709.056,205.442 708.82,205.272 C708.631,205.135 708.408,205.062 708.175,205.062 C707.822,205.062 707.502,205.225 707.296,205.513 L696.372,220.542 C696.201,220.776 696.131,221.063 696.177,221.352 C696.222,221.64 696.377,221.893 696.61,222.063 C696.801,222.2 697.023,222.272 697.252,222.272 C697.609,222.272 697.93,222.109 698.138,221.823 L709.06,206.793 C709.231,206.558 709.301,206.27 709.256,205.982" id="Fill-79" fill="#000000"></path>
            <path d="M724.729,217.084 C724.376,217.084 724.055,217.25 723.845,217.539 L717.462,226.324 C717.291,226.56 717.222,226.849 717.268,227.135 C717.313,227.423 717.47,227.677 717.703,227.847 C717.893,227.984 718.114,228.057 718.345,228.057 C718.7,228.057 719.021,227.893 719.229,227.607 L725.61,218.823 C725.963,218.335 725.858,217.649 725.37,217.295 C725.181,217.158 724.958,217.084 724.729,217.084" id="Fill-80" fill="#000000"></path>
            <path d="M767.288,229.562 C766.687,229.562 766.196,230.052 766.196,230.653 L766.2,253.239 C766.2,253.841 766.691,254.33 767.295,254.33 C767.896,254.33 768.385,253.841 768.385,253.239 L768.382,230.653 C768.382,230.052 767.892,229.562 767.288,229.562" id="Fill-81" fill="#000000"></path>
            <path d="M756.898,227.642 C756.295,227.642 755.806,228.133 755.806,228.734 L755.806,247.313 C755.806,247.915 756.295,248.405 756.898,248.405 C757.499,248.405 757.988,247.915 757.988,247.313 L757.988,228.734 C757.988,228.133 757.499,227.642 756.898,227.642" id="Fill-82" fill="#000000"></path>
            <path d="M777.356,227.642 C776.757,227.642 776.267,228.133 776.267,228.734 L776.267,239.593 C776.267,240.195 776.757,240.685 777.356,240.685 C777.96,240.685 778.45,240.195 778.45,239.593 L778.45,228.734 C778.45,228.133 777.96,227.642 777.356,227.642" id="Fill-83" fill="#000000"></path>
            <path d="M820.008,213.171 C819.801,212.885 819.479,212.722 819.126,212.722 C818.895,212.722 818.673,212.795 818.479,212.933 C818.245,213.103 818.092,213.355 818.045,213.642 C818.001,213.931 818.069,214.219 818.242,214.456 L831.521,232.726 C831.724,233.006 832.053,233.172 832.401,233.172 C832.635,233.172 832.854,233.103 833.043,232.966 C833.278,232.793 833.434,232.541 833.479,232.252 C833.526,231.965 833.456,231.677 833.283,231.44 L820.008,213.171" id="Fill-84" fill="#000000"></path>
            <path d="M810.472,217.726 C810.265,217.44 809.943,217.275 809.588,217.275 C809.357,217.275 809.138,217.348 808.949,217.484 C808.461,217.838 808.354,218.523 808.707,219.011 L819.628,234.039 C819.834,234.323 820.154,234.486 820.509,234.486 C820.742,234.486 820.963,234.416 821.148,234.28 C821.384,234.108 821.54,233.855 821.585,233.566 C821.631,233.278 821.563,232.989 821.388,232.753 L810.472,217.726" id="Fill-85" fill="#000000"></path>
            <path d="M827.025,205.702 C826.817,205.417 826.497,205.253 826.145,205.253 C825.914,205.253 825.691,205.327 825.502,205.464 C825.265,205.634 825.11,205.888 825.066,206.175 C825.02,206.462 825.09,206.751 825.261,206.986 L831.638,215.764 C831.847,216.047 832.176,216.216 832.523,216.216 C832.753,216.216 832.974,216.144 833.165,216.004 C833.4,215.833 833.554,215.582 833.601,215.294 C833.645,215.004 833.576,214.715 833.406,214.479 L827.025,205.702" id="Fill-86" fill="#000000"></path>
            <path d="M872.98,175.654 L851.5,168.679 C851.39,168.644 851.28,168.626 851.16,168.626 C850.69,168.626 850.27,168.93 850.12,169.384 C850.03,169.659 850.05,169.952 850.18,170.21 C850.32,170.471 850.54,170.665 850.82,170.755 L872.31,177.733 C872.42,177.769 872.52,177.786 872.64,177.786 C873.11,177.786 873.53,177.482 873.68,177.032 C873.87,176.458 873.55,175.84 872.98,175.654" id="Fill-87" fill="#000000"></path>
            <path d="M864.13,183.709 L846.463,177.974 C846.354,177.938 846.24,177.92 846.127,177.92 C845.65,177.92 845.231,178.224 845.082,178.675 C844.897,179.246 845.213,179.863 845.786,180.051 L863.44,185.787 C863.56,185.823 863.68,185.841 863.79,185.841 C864.26,185.841 864.68,185.538 864.83,185.086 C865.01,184.516 864.7,183.897 864.13,183.709" id="Fill-88" fill="#000000"></path>
            <path d="M852.79,158.513 C852.68,158.477 852.56,158.458 852.45,158.458 C851.97,158.458 851.55,158.761 851.41,159.208 C851.22,159.783 851.54,160.402 852.11,160.589 L862.43,163.941 C862.54,163.979 862.66,163.997 862.77,163.997 C863.24,163.997 863.66,163.694 863.81,163.244 C863.99,162.671 863.68,162.052 863.11,161.865 L852.79,158.513" id="Fill-89" fill="#000000"></path>
            <path d="M850.19,114.721 C850.05,114.979 850.03,115.276 850.12,115.555 C850.27,116.005 850.68,116.308 851.16,116.308 C851.27,116.308 851.39,116.289 851.5,116.257 L872.97,109.275 C873.54,109.087 873.86,108.469 873.67,107.898 C873.52,107.445 873.11,107.14 872.63,107.14 C872.52,107.14 872.41,107.159 872.29,107.194 L850.82,114.179 C850.54,114.269 850.32,114.461 850.19,114.721" id="Fill-90" fill="#000000"></path>
            <path d="M871.25,119.612 C871.1,119.162 870.68,118.858 870.21,118.858 C870.09,118.858 869.98,118.876 869.87,118.911 L852.21,124.654 C851.63,124.841 851.32,125.459 851.51,126.031 C851.65,126.481 852.07,126.784 852.54,126.784 C852.66,126.784 852.78,126.767 852.88,126.731 L870.55,120.991 C871.12,120.803 871.43,120.185 871.25,119.612" id="Fill-91" fill="#000000"></path>
            <path d="M846.22,107.32 C846.332,107.32 846.447,107.302 846.556,107.267 L856.88,103.917 C857.46,103.729 857.77,103.112 857.59,102.543 C857.44,102.089 857.02,101.785 856.54,101.785 C856.43,101.785 856.32,101.803 856.21,101.838 L845.882,105.19 C845.604,105.281 845.378,105.474 845.246,105.734 C845.114,105.994 845.09,106.288 845.18,106.563 C845.328,107.017 845.744,107.32 846.22,107.32" id="Fill-92" fill="#000000"></path>
            <path d="M819.121,72.214 C819.477,72.214 819.803,72.049 820.01,71.764 L833.274,53.498 C833.629,53.008 833.52,52.321 833.033,51.966 C832.844,51.829 832.621,51.755 832.391,51.755 C832.039,51.755 831.716,51.921 831.507,52.21 L818.242,70.48 C817.888,70.967 817.996,71.651 818.482,72.006 C818.669,72.143 818.891,72.214 819.121,72.214" id="Fill-93" fill="#000000"></path>
            <path d="M837.316,62.663 C836.965,62.663 836.645,62.827 836.437,63.116 L825.514,78.144 C825.343,78.379 825.274,78.667 825.318,78.955 C825.365,79.242 825.519,79.494 825.758,79.667 C825.944,79.804 826.164,79.876 826.395,79.876 C826.748,79.876 827.071,79.713 827.279,79.426 L838.203,64.398 C838.375,64.162 838.443,63.873 838.397,63.583 C838.353,63.296 838.197,63.044 837.964,62.875 C837.771,62.736 837.549,62.663 837.316,62.663" id="Fill-94" fill="#000000"></path>
            <path d="M809.845,67.848 C810.195,67.848 810.524,67.68 810.728,67.397 L817.11,58.616 C817.283,58.379 817.354,58.089 817.308,57.801 C817.263,57.514 817.106,57.262 816.871,57.091 C816.68,56.954 816.46,56.882 816.228,56.882 C815.874,56.882 815.555,57.045 815.346,57.333 L808.964,66.114 C808.791,66.351 808.723,66.639 808.767,66.926 C808.812,67.214 808.967,67.466 809.206,67.638 C809.395,67.775 809.614,67.848 809.845,67.848" id="Fill-95" fill="#000000"></path>
            <path d="M697.409,448.5 L699.542,448.5 L699.542,444.583 L697.409,444.583 L697.409,448.5 Z M695.147,450.763 L701.803,450.763 L701.803,442.32 L695.147,442.32 L695.147,450.763 Z" id="Fill-96" fill="#000000"></path>
            <path d="M697.409,418.083 L699.542,418.083 L699.542,415.237 L697.409,415.237 L697.409,418.083 Z M695.147,420.345 L701.803,420.345 L701.803,412.975 L695.147,412.975 L695.147,420.345 Z" id="Fill-97" fill="#000000"></path>
            <path d="M697.409,433.289 L699.542,433.289 L699.542,429.375 L697.409,429.375 L697.409,433.289 Z M695.147,435.552 L701.803,435.552 L701.803,427.113 L695.147,427.113 L695.147,435.552 Z" id="Fill-98" fill="#000000"></path>
            <path d="M697.409,471.669 L699.542,471.669 L699.542,455.274 L697.409,455.274 L697.409,471.669 Z M695.147,473.93 L701.803,473.93 L701.803,453.012 L695.147,453.012 L695.147,473.93 Z" id="Fill-99" fill="#000000"></path>
            <path d="M756.221,448.5 L758.356,448.5 L758.356,444.583 L756.221,444.583 L756.221,448.5 Z M753.957,450.763 L760.616,450.763 L760.616,442.32 L753.957,442.32 L753.957,450.763 Z" id="Fill-100" fill="#000000"></path>
            <path d="M756.221,471.669 L758.356,471.669 L758.356,455.274 L756.221,455.274 L756.221,471.669 Z M753.957,473.93 L760.616,473.93 L760.616,453.012 L753.957,453.012 L753.957,473.93 Z" id="Fill-101" fill="#000000"></path>
            <path d="M756.221,433.289 L758.356,433.289 L758.356,429.375 L756.221,429.375 L756.221,433.289 Z M753.957,435.552 L760.616,435.552 L760.616,427.113 L753.957,427.113 L753.957,435.552 Z" id="Fill-102" fill="#000000"></path>
            <path d="M756.221,418.083 L758.356,418.083 L758.356,415.237 L756.221,415.237 L756.221,418.083 Z M753.957,420.345 L760.616,420.345 L760.616,412.975 L753.957,412.975 L753.957,420.345 Z" id="Fill-103" fill="#000000"></path>
            <path d="M686.407,420.345 C686.246,420.345 686.111,420.479 686.111,420.639 L686.111,426.819 C686.111,426.979 686.246,427.113 686.407,427.113 L769.354,427.113 C769.515,427.113 769.65,426.979 769.65,426.819 L769.65,420.639 C769.65,420.479 769.515,420.345 769.354,420.345 L686.407,420.345 Z M769.354,429.375 L686.407,429.375 C684.997,429.375 683.85,428.229 683.85,426.819 L683.85,420.639 C683.85,419.229 684.997,418.083 686.407,418.083 L769.354,418.083 C770.764,418.083 771.912,419.229 771.912,420.639 L771.912,426.819 C771.912,428.229 770.764,429.375 769.354,429.375 L769.354,429.375 Z" id="Fill-104" fill="#000000"></path>
            <path d="M686.407,435.552 C686.246,435.552 686.111,435.688 686.111,435.848 L686.111,442.027 C686.111,442.186 686.246,442.32 686.407,442.32 L769.354,442.32 C769.515,442.32 769.65,442.186 769.65,442.027 L769.65,435.848 C769.65,435.688 769.515,435.552 769.354,435.552 L686.407,435.552 Z M769.354,444.583 L686.407,444.583 C684.997,444.583 683.85,443.437 683.85,442.027 L683.85,435.848 C683.85,434.438 684.997,433.289 686.407,433.289 L769.354,433.289 C770.764,433.289 771.912,434.438 771.912,435.848 L771.912,442.027 C771.912,443.437 770.764,444.583 769.354,444.583 L769.354,444.583 Z" id="Fill-105" fill="#000000"></path>
            <path d="M675,450.763 C674.84,450.763 674.704,450.898 674.704,451.058 L674.704,452.721 C674.704,452.879 674.84,453.012 675,453.012 L780.762,453.012 C780.921,453.012 781.057,452.879 781.057,452.721 L781.057,451.058 C781.057,450.898 780.921,450.763 780.762,450.763 L675,450.763 Z M780.762,455.274 L675,455.274 C673.591,455.274 672.443,454.129 672.443,452.721 L672.443,451.058 C672.443,449.646 673.591,448.5 675,448.5 L780.762,448.5 C782.171,448.5 783.318,449.646 783.318,451.058 L783.318,452.721 C783.318,454.129 782.171,455.274 780.762,455.274 L780.762,455.274 Z" id="Fill-106" fill="#000000"></path>
            <path d="M637.23,471.669 L665.56,471.669 L665.56,466.824 L637.23,466.824 L637.23,471.669 Z M634.969,473.93 L667.823,473.93 L667.823,464.562 L634.969,464.562 L634.969,473.93 Z" id="Fill-107" fill="#000000"></path>
            <path d="M642.657,464.562 L660.135,464.562 L658.001,435.03 L644.792,435.03 L642.657,464.562 Z M662.565,466.824 L640.225,466.824 L642.687,432.77 L660.106,432.77 L662.565,466.824 L662.565,466.824 Z" id="Fill-108" fill="#000000"></path>
            <polygon id="Fill-109" fill="#000000" points="650.264 433.898 652.526 433.898 652.526 312.249 650.264 312.249"></polygon>
            <path d="M646.205,305.552 L651.397,310.661 L656.59,305.552 L646.205,305.552 Z M651.397,313.835 L640.682,303.29 L662.111,303.29 L651.397,313.835 L651.397,313.835 Z" id="Fill-110" fill="#000000"></path>
            <polyline id="Fill-111" fill="#000000" points="651.396 305.552 643.693 305.552 638.737 276.07 651.397 276.07 651.397 278.333 641.412 278.333 645.606 303.29 651.396 303.29 651.396 305.552"></polyline>
            <polyline id="Fill-112" fill="#000000" points="659.099 305.552 651.397 305.552 651.397 303.29 657.187 303.29 661.382 278.333 651.397 278.333 651.397 276.07 664.057 276.07 659.099 305.552"></polyline>
            <path d="M638.91,276.07 L663.881,276.07 C662.408,270.399 657.352,266.41 651.397,266.41 C645.441,266.41 640.383,270.399 638.91,276.07 Z M666.592,278.333 L636.202,278.333 L636.404,277.028 C637.567,269.564 643.872,264.148 651.397,264.148 C658.921,264.148 665.227,269.564 666.387,277.028 L666.592,278.333 L666.592,278.333 Z" id="Fill-113" fill="#000000"></path>
            <polygon id="Fill-114" fill="#000000" points="650.268 265.278 652.528 265.278 652.528 259.015 650.268 259.015"></polygon>
        </g>
    </g>
</svg>